<svg width="20" height="20" viewBox="0 0 20 20" fill="none" xmlns="http://www.w3.org/2000/svg">
<path d="M10.7074 2.293C10.5199 2.10553 10.2656 2.00021 10.0004 2.00021C9.73524 2.00021 9.48094 2.10553 9.29341 2.293L2.29341 9.293C2.11125 9.4816 2.01045 9.7342 2.01273 9.9964C2.01501 10.2586 2.12018 10.5094 2.30559 10.6948C2.491 10.8802 2.74181 10.9854 3.00401 10.9877C3.2662 10.99 3.51881 10.8892 3.70741 10.707L4.00041 10.414V17C4.00041 17.2652 4.10576 17.5196 4.2933 17.7071C4.48084 17.8946 4.73519 18 5.00041 18H7.00041C7.26562 18 7.51998 17.8946 7.70751 17.7071C7.89505 17.5196 8.00041 17.2652 8.00041 17V15C8.00041 14.7348 8.10576 14.4804 8.2933 14.2929C8.48084 14.1054 8.73519 14 9.00041 14H11.0004C11.2656 14 11.52 14.1054 11.7075 14.2929C11.8951 14.4804 12.0004 14.7348 12.0004 15V17C12.0004 17.2652 12.1058 17.5196 12.2933 17.7071C12.4808 17.8946 12.7352 18 13.0004 18H15.0004C15.2656 18 15.52 17.8946 15.7075 17.7071C15.8951 17.5196 16.0004 17.2652 16.0004 17V10.414L16.2934 10.707C16.482 10.8892 16.7346 10.99 16.9968 10.9877C17.259 10.9854 17.5098 10.8802 17.6952 10.6948C17.8806 10.5094 17.9858 10.2586 17.9881 9.9964C17.9904 9.7342 17.8896 9.4816 17.7074 9.293L10.7074 2.293Z" stroke="#FBFBFB" stroke-width="2" stroke-linecap="round" stroke-linejoin="round"/>
</svg>
