<svg width="20" height="20" viewBox="0 0 20 20" fill="none" xmlns="http://www.w3.org/2000/svg">
<path d="M8.33333 9.99999H11.6667M4.16667 6.66666H15.8333H4.16667ZM4.16667 6.66666C3.72464 6.66666 3.30072 6.49107 2.98816 6.17851C2.67559 5.86595 2.5 5.44202 2.5 4.99999C2.5 4.55797 2.67559 4.13404 2.98816 3.82148C3.30072 3.50892 3.72464 3.33333 4.16667 3.33333H15.8333C16.2754 3.33333 16.6993 3.50892 17.0118 3.82148C17.3244 4.13404 17.5 4.55797 17.5 4.99999C17.5 5.44202 17.3244 5.86595 17.0118 6.17851C16.6993 6.49107 16.2754 6.66666 15.8333 6.66666H4.16667ZM4.16667 6.66666V15C4.16667 15.442 4.34226 15.8659 4.65482 16.1785C4.96738 16.4911 5.39131 16.6667 5.83333 16.6667H14.1667C14.6087 16.6667 15.0326 16.4911 15.3452 16.1785C15.6577 15.8659 15.8333 15.442 15.8333 15V6.66666H4.16667Z" stroke="#FBFBFB" stroke-width="2" stroke-linecap="round" stroke-linejoin="round"/>
</svg>
