<svg width="36" height="37" viewBox="0 0 36 37" fill="none" xmlns="http://www.w3.org/2000/svg">
<path d="M16.2004 3.7002C15.723 3.7002 15.2652 3.89511 14.9276 4.24205C14.59 4.58899 14.4004 5.05954 14.4004 5.5502C14.4004 6.04085 14.59 6.5114 14.9276 6.85834C15.2652 7.20529 15.723 7.4002 16.2004 7.4002H19.8004C20.2778 7.4002 20.7356 7.20529 21.0732 6.85834C21.4107 6.5114 21.6004 6.04085 21.6004 5.5502C21.6004 5.05954 21.4107 4.58899 21.0732 4.24205C20.7356 3.89511 20.2778 3.7002 19.8004 3.7002H16.2004Z" fill="white"/>
<path fill-rule="evenodd" clip-rule="evenodd" d="M7.2002 9.2498C7.2002 8.2685 7.57948 7.32739 8.25461 6.63351C8.92974 5.93962 9.84542 5.5498 10.8002 5.5498C10.8002 7.02176 11.3691 8.43342 12.3818 9.47425C13.3945 10.5151 14.768 11.0998 16.2002 11.0998H19.8002C21.2324 11.0998 22.6059 10.5151 23.6186 9.47425C24.6313 8.43342 25.2002 7.02176 25.2002 5.5498C26.155 5.5498 27.0706 5.93962 27.7458 6.63351C28.4209 7.32739 28.8002 8.2685 28.8002 9.2498V29.5998C28.8002 30.5811 28.4209 31.5222 27.7458 32.2161C27.0706 32.91 26.155 33.2998 25.2002 33.2998H10.8002C9.84542 33.2998 8.92974 32.91 8.25461 32.2161C7.57948 31.5222 7.2002 30.5811 7.2002 29.5998V9.2498ZM12.6002 16.6498C12.1228 16.6498 11.665 16.8447 11.3274 17.1917C10.9898 17.5386 10.8002 18.0092 10.8002 18.4998C10.8002 18.9905 10.9898 19.461 11.3274 19.808C11.665 20.1549 12.1228 20.3498 12.6002 20.3498H12.6182C13.0956 20.3498 13.5534 20.1549 13.891 19.808C14.2286 19.461 14.4182 18.9905 14.4182 18.4998C14.4182 18.0092 14.2286 17.5386 13.891 17.1917C13.5534 16.8447 13.0956 16.6498 12.6182 16.6498H12.6002ZM18.0002 16.6498C17.5228 16.6498 17.065 16.8447 16.7274 17.1917C16.3898 17.5386 16.2002 18.0092 16.2002 18.4998C16.2002 18.9905 16.3898 19.461 16.7274 19.808C17.065 20.1549 17.5228 20.3498 18.0002 20.3498H23.4002C23.8776 20.3498 24.3354 20.1549 24.673 19.808C25.0106 19.461 25.2002 18.9905 25.2002 18.4998C25.2002 18.0092 25.0106 17.5386 24.673 17.1917C24.3354 16.8447 23.8776 16.6498 23.4002 16.6498H18.0002ZM12.6002 24.0498C12.1228 24.0498 11.665 24.2447 11.3274 24.5917C10.9898 24.9386 10.8002 25.4092 10.8002 25.8998C10.8002 26.3905 10.9898 26.861 11.3274 27.208C11.665 27.5549 12.1228 27.7498 12.6002 27.7498H12.6182C13.0956 27.7498 13.5534 27.5549 13.891 27.208C14.2286 26.861 14.4182 26.3905 14.4182 25.8998C14.4182 25.4092 14.2286 24.9386 13.891 24.5917C13.5534 24.2447 13.0956 24.0498 12.6182 24.0498H12.6002ZM18.0002 24.0498C17.5228 24.0498 17.065 24.2447 16.7274 24.5917C16.3898 24.9386 16.2002 25.4092 16.2002 25.8998C16.2002 26.3905 16.3898 26.861 16.7274 27.208C17.065 27.5549 17.5228 27.7498 18.0002 27.7498H23.4002C23.8776 27.7498 24.3354 27.5549 24.673 27.208C25.0106 26.861 25.2002 26.3905 25.2002 25.8998C25.2002 25.4092 25.0106 24.9386 24.673 24.5917C24.3354 24.2447 23.8776 24.0498 23.4002 24.0498H18.0002Z" fill="white"/>
</svg>
