<svg width="20" height="20" viewBox="0 0 20 20" fill="none" xmlns="http://www.w3.org/2000/svg">
<path d="M10.0003 4.16666V4.175V4.16666ZM10.0003 9.99999V10.0083V9.99999ZM10.0003 15.8333V15.8417V15.8333ZM10.0003 4.99999C9.77931 4.99999 9.56735 4.9122 9.41107 4.75592C9.25479 4.59964 9.16699 4.38768 9.16699 4.16666C9.16699 3.94565 9.25479 3.73369 9.41107 3.57741C9.56735 3.42113 9.77931 3.33333 10.0003 3.33333C10.2213 3.33333 10.4333 3.42113 10.5896 3.57741C10.7459 3.73369 10.8337 3.94565 10.8337 4.16666C10.8337 4.38768 10.7459 4.59964 10.5896 4.75592C10.4333 4.9122 10.2213 4.99999 10.0003 4.99999ZM10.0003 10.8333C9.77931 10.8333 9.56735 10.7455 9.41107 10.5892C9.25479 10.433 9.16699 10.221 9.16699 9.99999C9.16699 9.77898 9.25479 9.56702 9.41107 9.41074C9.56735 9.25446 9.77931 9.16666 10.0003 9.16666C10.2213 9.16666 10.4333 9.25446 10.5896 9.41074C10.7459 9.56702 10.8337 9.77898 10.8337 9.99999C10.8337 10.221 10.7459 10.433 10.5896 10.5892C10.4333 10.7455 10.2213 10.8333 10.0003 10.8333ZM10.0003 16.6667C9.77931 16.6667 9.56735 16.5789 9.41107 16.4226C9.25479 16.2663 9.16699 16.0543 9.16699 15.8333C9.16699 15.6123 9.25479 15.4004 9.41107 15.2441C9.56735 15.0878 9.77931 15 10.0003 15C10.2213 15 10.4333 15.0878 10.5896 15.2441C10.7459 15.4004 10.8337 15.6123 10.8337 15.8333C10.8337 16.0543 10.7459 16.2663 10.5896 16.4226C10.4333 16.5789 10.2213 16.6667 10.0003 16.6667Z" stroke="#7D7D7D" stroke-width="2" stroke-linecap="round" stroke-linejoin="round"/>
</svg>
