<svg width="32" height="32" viewBox="0 0 32 32" fill="none" xmlns="http://www.w3.org/2000/svg">
<g clip-path="url(#clip0_244_1156)">
<path d="M0 3.71717C0 2.6397 0.360371 1.75082 1.08108 1.0505C1.80179 0.350157 2.73875 0 3.89189 0C5.02446 0 5.94079 0.344759 6.64093 1.03434C7.36164 1.74545 7.72201 2.67203 7.72201 3.81414C7.72201 4.84848 7.37195 5.71041 6.67181 6.39999C5.9511 7.1111 5.00386 7.46665 3.83012 7.46665H3.79923C2.66666 7.46665 1.75033 7.1111 1.05019 6.39999C0.350054 5.68888 0 4.79459 0 3.71717ZM0.401544 31.9999V10.4081H7.25869V31.9999H0.401544ZM11.0579 31.9999H17.9151V19.9434C17.9151 19.1892 17.9974 18.6074 18.1622 18.198C18.4504 17.4653 18.888 16.8457 19.4749 16.3394C20.0618 15.833 20.7979 15.5798 21.6834 15.5798C23.9897 15.5798 25.1429 17.2067 25.1429 20.4606V31.9999H32V19.6202C32 16.4309 31.2793 14.0121 29.8378 12.3636C28.3964 10.7151 26.4916 9.89089 24.1236 9.89089C21.4672 9.89089 19.3977 11.0869 17.9151 13.4788V13.5434H17.8842L17.9151 13.4788V10.4081H11.0579C11.0991 11.0976 11.1197 13.2417 11.1197 16.8404C11.1197 20.439 11.0991 25.4922 11.0579 31.9999Z" fill="white"/>
</g>
<defs>
<clipPath id="clip0_244_1156">
<rect width="32" height="32" fill="white"/>
</clipPath>
</defs>
</svg>
