<svg width="32" height="32" viewBox="0 0 32 32" fill="none" xmlns="http://www.w3.org/2000/svg">
<path d="M29.6864 3.23704C29.3068 2.92122 28.8486 2.71423 28.3607 2.63811C27.8728 2.56199 27.3734 2.61958 26.9156 2.80476L3.02104 12.4519C2.51004 12.6621 2.07506 13.0228 1.77384 13.486C1.47262 13.9493 1.3194 14.4932 1.33452 15.0455C1.34963 15.5979 1.53237 16.1326 1.85848 16.5786C2.18459 17.0247 2.63864 17.3611 3.16038 17.543L7.99371 19.224L10.6877 28.1329C10.7243 28.2519 10.7775 28.3652 10.8455 28.4694C10.8559 28.4854 10.8705 28.4973 10.8814 28.5129C10.9601 28.6226 11.0552 28.7196 11.1633 28.8005C11.1941 28.824 11.2236 28.8459 11.2564 28.8668C11.383 28.9507 11.5232 29.0122 11.6707 29.0483L11.6865 29.0496L11.6955 29.0534C11.7842 29.0715 11.8745 29.0806 11.965 29.0808C11.9737 29.0808 11.9815 29.0766 11.9901 29.0764C12.1267 29.0741 12.2621 29.0505 12.3915 29.0067C12.4216 28.9964 12.4474 28.9793 12.4767 28.9669C12.5732 28.9269 12.6646 28.8756 12.749 28.8142C12.8167 28.7572 12.8843 28.7002 12.952 28.6433L16.5549 24.6654L21.9286 28.8282C22.4017 29.1965 22.984 29.3967 23.5835 29.3972C24.2118 29.3964 24.8206 29.1796 25.308 28.7832C25.7955 28.3868 26.1318 27.835 26.2606 27.2201L30.6109 5.86465C30.7095 5.38401 30.6755 4.88561 30.5127 4.42277C30.3498 3.95993 30.0642 3.55007 29.6864 3.23704ZM12.4937 19.6485C12.3088 19.8326 12.1825 20.0673 12.1304 20.323L11.7177 22.3283L10.6723 18.8709L16.0927 16.0483L12.4937 19.6485ZM23.5627 26.7201L17.2125 21.8008C16.9468 21.5955 16.6135 21.4978 16.279 21.5273C15.9446 21.5567 15.6335 21.7111 15.4078 21.9597L14.2539 23.2333L14.6617 21.2513L24.1057 11.8073C24.3311 11.5822 24.4684 11.2838 24.4928 10.9661C24.5172 10.6485 24.427 10.3326 24.2386 10.0757C24.0502 9.81885 23.776 9.63794 23.4657 9.56577C23.1554 9.4936 22.8295 9.53494 22.5471 9.68232L8.99338 16.7392L4.02756 14.9219L27.9989 5.33207L23.5627 26.7201Z" fill="white"/>
</svg>
